<?xml version="1.0" encoding="utf-8"?>
<!-- Generator: Adobe Illustrator 22.0.1, SVG Export Plug-In . SVG Version: 6.00 Build 0)  -->
<svg version="1.1" id="Layer_1" xmlns="http://www.w3.org/2000/svg" xmlns:xlink="http://www.w3.org/1999/xlink" x="0px" y="0px"
	 viewBox="0 0 55.9 9.7" style="enable-background:new 0 0 55.9 9.7;" xml:space="preserve">
<style type="text/css">
	.st0{fill:#37B44A;}
</style>
<title></title>
<g>
	<path class="st0" d="M4.1,9.5L1,1.3H0.9C1,2,1,2.7,1,3.6v5.9H0V0.3h1.6l2.9,7.7h0.1l3-7.7h1.6v9.3H8.1v-6c0-0.7,0-1.4,0.1-2.2H8.2
		L5,9.5H4.1z"/>
	<path class="st0" d="M11.5,0.7c0-0.2,0.1-0.4,0.2-0.5S11.9,0,12.1,0c0.2,0,0.3,0.1,0.4,0.2s0.2,0.3,0.2,0.5c0,0.2-0.1,0.4-0.2,0.5
		s-0.3,0.2-0.4,0.2c-0.2,0-0.3-0.1-0.4-0.2S11.5,0.9,11.5,0.7z M12.6,9.5h-1.1v-7h1.1V9.5z"/>
	<path class="st0" d="M19.4,7.6c0,0.6-0.2,1.1-0.7,1.5c-0.5,0.4-1.2,0.5-2,0.5c-0.9,0-1.6-0.1-2.2-0.4v-1c0.3,0.2,0.7,0.3,1.1,0.4
		c0.4,0.1,0.8,0.1,1.1,0.1c0.6,0,1-0.1,1.3-0.3s0.4-0.4,0.4-0.8c0-0.3-0.1-0.5-0.4-0.7c-0.2-0.2-0.7-0.4-1.4-0.7
		c-0.6-0.2-1.1-0.5-1.4-0.6c-0.3-0.2-0.5-0.4-0.6-0.6c-0.1-0.2-0.2-0.5-0.2-0.8c0-0.6,0.2-1,0.7-1.3s1.1-0.5,1.9-0.5
		c0.7,0,1.5,0.2,2.2,0.5l-0.4,0.9c-0.7-0.3-1.3-0.4-1.9-0.4c-0.5,0-0.9,0.1-1.1,0.2s-0.4,0.4-0.4,0.6c0,0.2,0,0.3,0.1,0.5
		C15.7,4.8,15.8,5,16,5.1s0.6,0.3,1.2,0.5c0.8,0.3,1.4,0.6,1.7,0.9C19.2,6.8,19.4,7.2,19.4,7.6z"/>
	<path class="st0" d="M23.3,8.8c0.2,0,0.4,0,0.5,0s0.3-0.1,0.4-0.1v0.8c-0.1,0.1-0.3,0.1-0.5,0.1c-0.2,0-0.4,0.1-0.6,0.1
		c-1.3,0-2-0.7-2-2.1V3.4h-1V2.9l1-0.4L21.6,1h0.6v1.6h2v0.8h-2v4.1c0,0.4,0.1,0.7,0.3,1S23,8.8,23.3,8.8z"/>
	<path class="st0" d="M33.2,1.1c-1,0-1.8,0.3-2.4,1c-0.6,0.7-0.9,1.6-0.9,2.8c0,1.2,0.3,2.2,0.9,2.8s1.4,1,2.4,1
		c0.6,0,1.4-0.1,2.2-0.3v0.9c-0.6,0.2-1.4,0.4-2.4,0.4c-1.4,0-2.4-0.4-3.2-1.2c-0.7-0.8-1.1-2-1.1-3.5c0-1,0.2-1.8,0.5-2.5
		c0.4-0.7,0.9-1.3,1.5-1.7c0.7-0.4,1.5-0.6,2.4-0.6c1,0,1.8,0.2,2.6,0.5l-0.5,0.9C34.6,1.3,33.9,1.1,33.2,1.1z"/>
	<path class="st0" d="M43.2,6.1c0,1.1-0.3,2-0.9,2.7c-0.6,0.6-1.4,1-2.4,1c-0.6,0-1.2-0.1-1.7-0.4c-0.5-0.3-0.9-0.7-1.1-1.3
		c-0.3-0.5-0.4-1.2-0.4-1.9c0-1.1,0.3-2,0.8-2.7c0.6-0.6,1.4-0.9,2.4-0.9c1,0,1.7,0.3,2.3,1C43,4.1,43.2,5,43.2,6.1z M37.9,6.1
		c0,0.9,0.2,1.6,0.5,2c0.4,0.5,0.9,0.7,1.6,0.7s1.2-0.2,1.6-0.7c0.4-0.5,0.5-1.1,0.5-2c0-0.9-0.2-1.6-0.5-2S40.7,3.4,40,3.4
		c-0.7,0-1.2,0.2-1.6,0.7S37.9,5.2,37.9,6.1z"/>
	<path class="st0" d="M48.3,2.5c0.3,0,0.6,0,0.8,0.1l-0.1,1c-0.3-0.1-0.5-0.1-0.8-0.1c-0.6,0-1,0.2-1.4,0.7c-0.4,0.5-0.6,1-0.6,1.7
		v3.7h-1.1v-7H46l0.1,1.3h0.1c0.3-0.5,0.6-0.8,0.9-1C47.4,2.6,47.8,2.5,48.3,2.5z"/>
	<path class="st0" d="M53.3,9.7c-1,0-1.8-0.3-2.4-0.9S50,7.2,50,6.1c0-1.1,0.3-2,0.8-2.7c0.6-0.7,1.3-1,2.2-1c0.9,0,1.6,0.3,2.1,0.9
		s0.8,1.3,0.8,2.3v0.7h-4.8c0,0.8,0.2,1.4,0.6,1.9c0.4,0.4,0.9,0.6,1.7,0.6c0.8,0,1.5-0.2,2.2-0.5v0.9c-0.4,0.2-0.7,0.3-1.1,0.3
		C54.2,9.6,53.8,9.7,53.3,9.7z M53,3.3c-0.6,0-1,0.2-1.3,0.5c-0.3,0.4-0.5,0.9-0.6,1.5h3.6c0-0.7-0.1-1.2-0.4-1.5S53.6,3.3,53,3.3z"
		/>
</g>
</svg>
